<svg width="30" height="29" viewBox="0 0 30 29" fill="none" xmlns="http://www.w3.org/2000/svg">
<path d="M14.1976 6.87665V14.8562H14.9379V6.87665H14.1976ZM12.4452 8.07325C11.1018 8.51546 9.93271 9.36605 9.10378 10.5044C8.27486 11.6428 7.82812 13.0112 7.8269 14.4156C7.8269 15.2939 8.00126 16.1636 8.34002 16.9751C8.67878 17.7865 9.17531 18.5238 9.80125 19.1449C10.4272 19.766 11.1703 20.2586 11.9881 20.5947C12.806 20.9308 13.6825 21.1038 14.5677 21.1038C15.453 21.1038 16.3295 20.9308 17.1473 20.5947C17.9652 20.2586 18.7083 19.766 19.3342 19.1449C19.9602 18.5238 20.4567 17.7865 20.7955 16.9751C21.1342 16.1636 21.3086 15.2939 21.3086 14.4156C21.3067 13.0117 20.8597 11.644 20.0308 10.5063C19.2019 9.3685 18.0332 8.51839 16.6903 8.07634V8.89146C17.8192 9.31792 18.791 10.0744 19.4771 11.0608C20.1633 12.0472 20.5315 13.217 20.5329 14.4156C20.5329 15.1928 20.3787 15.9625 20.0789 16.6806C19.7791 17.3987 19.3397 18.0511 18.7858 18.6007C18.2319 19.1504 17.5743 19.5863 16.8505 19.8838C16.1268 20.1812 15.3511 20.3343 14.5677 20.3343C13.7844 20.3343 13.0087 20.1812 12.2849 19.8838C11.5612 19.5863 10.9036 19.1504 10.3497 18.6007C9.79577 18.0511 9.35638 17.3987 9.0566 16.6806C8.75682 15.9625 8.60253 15.1928 8.60254 14.4156C8.60295 13.2162 8.97062 12.0452 9.65685 11.0577C10.3431 10.0703 11.3155 9.31303 12.4452 8.88625V8.07325Z" fill="black"/>
<path d="M14.5678 0C10.7041 1.35198e-07 6.99878 1.52767 4.2668 4.24695C1.53481 6.96623 0 10.6544 0 14.5C0 18.3456 1.53481 22.0338 4.2668 24.753C6.99878 27.4723 10.7041 29 14.5678 29C18.4314 29 22.1367 27.4723 24.8687 24.753C27.6007 22.0338 29.1355 18.3456 29.1355 14.5C29.1355 10.6544 27.6007 6.96623 24.8687 4.24695C22.1367 1.52767 18.4314 0 14.5678 0ZM14.5678 0.764648C18.2276 0.764648 21.7376 2.21176 24.3255 4.78764C26.9134 7.36352 28.3673 10.8572 28.3673 14.5C28.3673 18.1428 26.9134 21.6365 24.3255 24.2124C21.7376 26.7882 18.2276 28.2354 14.5678 28.2354C10.9079 28.2354 7.39793 26.7882 4.81001 24.2124C2.2221 21.6365 0.768221 18.1428 0.768221 14.5C0.768221 10.8572 2.2221 7.36352 4.81001 4.78764C7.39793 2.21176 10.9079 0.764648 14.5678 0.764648Z" fill="black"/>
</svg>
