<svg width="64" height="69" viewBox="0 0 64 69" fill="none" xmlns="http://www.w3.org/2000/svg">
<path d="M34.443 0H28.572V39.4458H34.443V0Z" fill="#E4E4E4"/>
<path d="M31.5074 69C37.739 68.9999 43.8307 67.152 49.012 63.6899C54.1934 60.2278 58.2318 55.307 60.6165 49.5498C63.0012 43.7925 63.6252 37.4574 62.4094 31.3456C61.1937 25.2337 58.193 19.6196 53.7866 15.2132L49.6352 19.3647C59.6308 29.3603 59.6308 45.6246 49.6352 55.6203C44.8245 60.4142 38.3082 63.1033 31.5167 63.0974C24.7253 63.0914 18.2137 60.3909 13.4114 55.5886C8.60909 50.7863 5.90855 44.2747 5.90259 37.4832C5.89664 30.6918 8.58576 24.1754 13.3796 19.3647L9.22828 15.2132C4.8219 19.6196 1.82112 25.2337 0.605413 31.3456C-0.610298 37.4574 0.0136569 43.7925 2.39838 49.5498C4.7831 55.307 8.82148 60.2278 14.0028 63.6899C19.1842 67.152 25.2758 68.9999 31.5074 69Z" fill="#E4E4E4"/>
</svg>
