<svg width="30" height="30" viewBox="0 0 30 30" fill="none" xmlns="http://www.w3.org/2000/svg">
<path d="M11.692 4.31574V4.06959L11.4511 4.11998C5.9284 5.27494 1.766 10.183 1.766 16.0477C1.766 22.7672 7.2325 28.2357 13.952 28.2357C16.1366 28.2357 18.2768 27.6502 20.1446 26.546C20.5163 26.3267 20.9984 26.4492 21.2178 26.8205C21.4377 27.1926 21.3139 27.6737 20.9425 27.8924L20.9422 27.8926C18.8331 29.1403 16.4163 29.8007 13.952 29.8007C6.36948 29.8007 0.2 23.6303 0.2 16.0477C0.2 9.29257 5.09764 3.6629 11.5272 2.51262L11.692 2.48314V2.31574V0.450742C11.692 0.288617 11.7474 0.230917 11.7772 0.214197C11.8073 0.197223 11.8862 0.180118 12.0251 0.263224C12.0251 0.263258 12.0252 0.263293 12.0252 0.263327L13.56 1.18519L13.5605 1.18546C13.7352 1.2898 13.9652 1.42791 14.1955 1.56621C14.4257 1.7044 14.6562 1.84277 14.8314 1.94742C14.8314 1.94743 14.8314 1.94745 14.8315 1.94746L16.3657 2.86702C16.3659 2.8671 16.366 2.86718 16.3661 2.86726C16.5026 2.94967 16.5315 3.03187 16.5315 3.07774C16.5315 3.12361 16.5026 3.20582 16.3661 3.28823C16.366 3.2883 16.3659 3.28838 16.3657 3.28846L14.8315 4.20803C14.6564 4.31258 14.4261 4.45082 14.1962 4.58889L14.1955 4.58928C13.9652 4.72757 13.7352 4.86568 13.5605 4.97003L13.56 4.97029L12.0252 5.89216C12.0252 5.8922 12.0251 5.89224 12.025 5.89228C12.025 5.89229 12.025 5.89229 12.025 5.89229C11.8862 5.97536 11.8073 5.95826 11.7772 5.94129C11.7474 5.92457 11.692 5.86687 11.692 5.70474V4.31574Z" fill="black" stroke="white" stroke-width="0.4"/>
<path d="M23.7704 11.9022L23.7703 11.902C23.6431 11.6004 23.7839 11.2551 24.0836 11.1291L24.084 11.1289L27.057 9.87095C27.057 9.87095 27.057 9.87094 27.057 9.87094C27.357 9.7441 27.7029 9.88412 27.831 10.1849C27.9576 10.4846 27.8168 10.8304 27.5162 10.9575L27.5161 10.9576L24.5432 12.2155C24.5432 12.2155 24.5431 12.2156 24.5431 12.2156C24.2427 12.3426 23.8964 12.2019 23.7704 11.9022Z" fill="black" stroke="white" stroke-width="0.4"/>
<path d="M22.3206 8.5133L22.3206 8.51333C22.0897 8.74423 21.7174 8.74423 21.4865 8.51333L21.486 8.51287C21.2551 8.2835 21.2551 7.91049 21.4865 7.67917L21.4865 7.67914L23.7685 5.39614L23.7687 5.39594C23.9981 5.16577 24.3715 5.16578 24.6028 5.3964C24.833 5.62579 24.834 5.99915 24.6024 6.23255C24.6023 6.23263 24.6022 6.23271 24.6022 6.23279L22.3206 8.5133Z" fill="black" stroke="white" stroke-width="0.4"/>
<path d="M18.0986 6.2288L18.0982 6.22861C17.7988 6.10168 17.6583 5.75596 17.7853 5.45568C17.7853 5.45567 17.7853 5.45566 17.7853 5.45564L19.0433 2.48268L19.0433 2.48264C19.1703 2.18229 19.516 2.04201 19.8162 2.16895C20.1165 2.29596 20.2568 2.64163 20.1299 2.94181C20.1299 2.94182 20.1299 2.94183 20.1299 2.94185L18.8719 5.91481L18.8719 5.91485C18.7446 6.21585 18.3988 6.35692 18.0986 6.2288Z" fill="black" stroke="white" stroke-width="0.4"/>
<path d="M21.4862 23.5814L21.4862 23.5814L21.4867 23.5809C21.7162 23.3506 22.0885 23.3499 22.3207 23.5813C22.3208 23.5813 22.3208 23.5813 22.3208 23.5814L24.6026 25.8641L24.6028 25.8644C24.833 26.0938 24.833 26.4672 24.6024 26.6986C24.3727 26.929 23.9995 26.9293 23.7685 26.6984C23.7685 26.6983 23.7685 26.6983 23.7685 26.6983L21.4865 24.4154L21.4862 24.4151C21.2555 24.1851 21.2548 23.8121 21.4862 23.5814Z" fill="black" stroke="white" stroke-width="0.4"/>
<path d="M27.5162 21.1379L27.5164 21.138C27.8176 21.2651 27.9577 21.6106 27.831 21.9106C27.703 22.2114 27.357 22.3514 27.057 22.2246C27.057 22.2245 27.057 22.2245 27.057 22.2245L24.0842 20.9666C24.0841 20.9666 24.0841 20.9666 24.0841 20.9666C23.7839 20.8392 23.6429 20.4933 23.7701 20.194L23.7705 20.1933C23.8964 19.8936 24.2427 19.7529 24.5432 19.8799C24.5432 19.8799 24.5432 19.8799 24.5432 19.8799L27.5162 21.1379Z" fill="black" stroke="white" stroke-width="0.4"/>
<path d="M25.1971 15.4587H28.4251C28.7517 15.4587 29.0142 15.7203 29.0151 16.048C29.015 16.3742 28.7517 16.6387 28.4261 16.6387H25.1971C24.8719 16.6387 24.6071 16.3736 24.6071 16.0477C24.6071 15.7215 24.8702 15.4587 25.1971 15.4587Z" fill="black" stroke="white" stroke-width="0.4"/>
<path d="M13.2781 13.7982L13.3554 13.868L13.4569 13.8447C13.6163 13.808 13.7813 13.7887 13.9521 13.7887C15.2008 13.7887 16.2121 14.7993 16.2121 16.0477C16.2121 17.2943 15.2006 18.3067 13.9521 18.3067C12.7045 18.3067 11.692 17.2942 11.6911 16.0486C11.6911 15.8792 11.7121 15.713 11.7483 15.5515L11.7709 15.4505L11.7015 15.3736L8.51049 11.8426L8.51067 11.8425L8.50383 11.8356C8.10192 11.432 8.09263 10.8425 8.42019 10.5165L8.4207 10.516C8.74806 10.1878 9.33637 10.1971 9.73738 10.5999L9.73718 10.6001L9.74505 10.6072L13.2781 13.7982Z" fill="black" stroke="white" stroke-width="0.4"/>
</svg>
