<svg width="27" height="29" viewBox="0 0 27 29" fill="none" xmlns="http://www.w3.org/2000/svg">
<path fill-rule="evenodd" clip-rule="evenodd" d="M14.1376 8.49484C14.1376 7.76984 13.1903 7.49373 12.8009 8.10545L8.74811 14.4731C8.44083 14.956 8.78776 15.5875 9.35983 15.5875H11.6V20.5719C11.6 21.2856 12.5232 21.5702 12.9239 20.9797L18.0399 13.4578C18.367 12.9764 18.0215 12.325 17.4395 12.325H14.1374L14.1376 8.49484ZM9.35983 14.8625L13.4126 8.49484V12.325C13.4126 12.7258 13.7369 13.05 14.1376 13.05H17.4398L12.3252 20.5719V15.5875C12.3252 15.1868 12.001 14.8625 11.6002 14.8625H9.35983Z" fill="black"/>
<path fill-rule="evenodd" clip-rule="evenodd" d="M12.328 0C10.9276 0 9.79475 1.13706 9.79475 2.53751V3.86005C8.3943 4.33866 7.11848 5.08632 6.02946 6.04213L4.88533 5.37944C3.6732 4.67851 2.12409 5.09482 1.42457 6.30835L0.339895 8.19165C-0.359623 9.40519 0.0552734 10.9571 1.26598 11.6581L2.4101 12.3193C2.27133 13.0259 2.19912 13.7538 2.19912 14.5C2.19912 15.2462 2.27133 15.9755 2.4101 16.6807L1.26598 17.3419C0.0552952 18.0429 -0.359623 19.5948 0.339895 20.8083L1.42457 22.6917C2.12409 23.9052 3.6732 24.3215 4.88533 23.6206L6.02946 22.9579C7.11837 23.9137 8.39419 24.6613 9.79475 25.1399V26.4625C9.79475 27.8629 10.9276 29 12.328 29H14.4974C15.8978 29 17.0306 27.8629 17.0306 26.4625V25.1399C18.4311 24.6613 19.7069 23.9137 20.7959 22.9579L21.9401 23.6206C23.1522 24.3215 24.7013 23.9052 25.4008 22.6917L26.4855 20.8083C27.185 19.5948 26.7701 18.0429 25.5594 17.3419L24.4153 16.6807C24.5541 15.9755 24.6263 15.2462 24.6263 14.5C24.6263 13.7538 24.5541 13.0259 24.4153 12.3193L25.5594 11.6581C26.7701 10.9571 27.185 9.40519 26.4855 8.19165L25.4008 6.30835C24.7013 5.09481 23.1522 4.67851 21.9401 5.37944L20.7959 6.04213C19.707 5.08632 18.4312 4.33866 17.0306 3.86005V2.53751C17.0306 1.13706 15.8978 0 14.4974 0H12.328ZM10.5198 2.53751C10.5198 1.53639 11.3297 0.725002 12.328 0.725002H14.4974C15.4957 0.725002 16.3056 1.53639 16.3056 2.53751V4.12345C16.3056 4.28062 16.4076 4.42081 16.5591 4.46895C18.0431 4.93625 19.3855 5.72495 20.5042 6.75441C20.6203 6.86203 20.7945 6.88044 20.9318 6.80114L22.304 6.00676C23.1677 5.50691 24.2737 5.80427 24.7721 6.67086L25.8582 8.55416C26.3566 9.42217 26.0607 10.5309 25.1955 11.0308L23.8248 11.8237C23.6889 11.903 23.6195 12.0616 23.6535 12.216C23.8149 12.9509 23.9013 13.7155 23.9013 14.5C23.9013 15.2845 23.8149 16.0491 23.6535 16.7841C23.6195 16.9384 23.6889 17.097 23.8248 17.1763L25.1955 17.9693C26.0607 18.4705 26.3566 19.5793 25.8582 20.4459L24.7721 22.3292C24.2737 23.1972 23.1677 23.4931 22.304 22.9933L20.9304 22.1989C20.7931 22.1196 20.6203 22.138 20.5042 22.2456C19.3856 23.275 18.0431 24.0638 16.5591 24.5311C16.4076 24.5792 16.3056 24.7194 16.3056 24.8766V26.4625C16.3056 27.4636 15.4957 28.275 14.4974 28.275H12.328C11.3297 28.275 10.5198 27.4636 10.5198 26.4625V24.8766C10.5198 24.7194 10.4178 24.5792 10.2663 24.5311C8.78228 24.0638 7.4399 23.2751 6.32119 22.2456C6.20508 22.138 6.03232 22.1196 5.89496 22.1989L4.52141 22.9933C3.65764 23.4931 2.55172 23.1972 2.05328 22.3292L0.967195 20.4459C0.468757 19.5793 0.764706 18.4705 1.62988 17.9693L3.00057 17.1763C3.13651 17.097 3.2059 16.9384 3.17191 16.7841C3.01049 16.0492 2.92411 15.2845 2.92411 14.5C2.92411 13.7155 3.01049 12.9509 3.17191 12.216C3.2059 12.0616 3.13651 11.903 3.00057 11.8237L1.62988 11.0308C0.764702 10.5309 0.468757 9.42217 0.967195 8.55416L2.05328 6.67086C2.55172 5.80427 3.65764 5.50691 4.52141 6.00676L5.89355 6.80114C6.0309 6.88044 6.20507 6.86203 6.32119 6.75441C7.43983 5.72498 8.78224 4.93625 10.2663 4.46895C10.4178 4.42081 10.5198 4.28062 10.5198 4.12345V2.53751Z" fill="black"/>
</svg>
